<svg width="24" height="25" viewBox="0 0 24 25" fill="none" xmlns="http://www.w3.org/2000/svg">
<g clip-path="url(#clip0_1_6025)">
<path fill-rule="evenodd" clip-rule="evenodd" d="M15.6851 4.00576C16.5599 2.99177 17.1497 1.57949 16.9883 0.174316C15.7275 0.222316 14.2022 0.979692 13.2982 1.99248C12.4864 2.89127 11.7778 4.32739 11.9683 5.70498C13.3747 5.80937 14.8102 5.02094 15.6851 4.00576ZM18.8388 12.9243C18.874 16.5567 22.1636 17.765 22.2 17.7806C22.1733 17.8658 21.6746 19.5023 20.4672 21.1942C19.4224 22.6558 18.3388 24.1115 16.6315 24.1427C14.9546 24.1727 14.4146 23.1899 12.4961 23.1899C10.5789 23.1899 9.97948 24.1114 8.39231 24.1726C6.74446 24.2314 5.48855 22.5912 4.4365 21.1345C2.28387 18.1549 0.639666 12.7144 2.84812 9.04248C3.94506 7.2197 5.90476 6.06366 8.03313 6.03486C9.65064 6.00486 11.1784 7.07783 12.1673 7.07783C13.1563 7.07783 15.0128 5.78784 16.964 5.97744C17.7807 6.00984 20.074 6.29294 21.5459 8.3581C21.427 8.4289 18.8096 9.88836 18.8388 12.9243Z" fill="white"/>
</g>
<defs>
<clipPath id="clip0_1_6025">
<rect width="24" height="24" fill="white" transform="translate(0 0.174316)"/>
</clipPath>
</defs>
</svg>
