<svg width="60" height="60" viewBox="0 0 60 60" fill="none" xmlns="http://www.w3.org/2000/svg">
<path d="M5 30C5 20.5719 5 15.8579 7.92893 12.9289C10.8579 10 15.5719 10 25 10H35C44.428 10 49.1422 10 52.071 12.9289C55 15.8579 55 20.5719 55 30V35C55 44.428 55 49.1422 52.071 52.071C49.1422 55 44.428 55 35 55H25C15.5719 55 10.8579 55 7.92893 52.071C5 49.1422 5 44.428 5 35V30Z" stroke="#50B498" stroke-width="3.75"/>
<path opacity="0.5" d="M17.5 10V6.25" stroke="#50B498" stroke-width="3.75" stroke-linecap="round"/>
<path opacity="0.5" d="M42.5 10V6.25" stroke="#50B498" stroke-width="3.75" stroke-linecap="round"/>
<path opacity="0.5" d="M6.25 22.5H53.75" stroke="#50B498" stroke-width="3.75" stroke-linecap="round"/>
<path d="M45 42.5C45 43.8807 43.8807 45 42.5 45C41.1193 45 40 43.8807 40 42.5C40 41.1193 41.1193 40 42.5 40C43.8807 40 45 41.1193 45 42.5Z" fill="#50B498"/>
<path d="M45 32.5C45 33.8807 43.8807 35 42.5 35C41.1193 35 40 33.8807 40 32.5C40 31.1193 41.1193 30 42.5 30C43.8807 30 45 31.1193 45 32.5Z" fill="#50B498"/>
<path d="M32.5 42.5C32.5 43.8807 31.3807 45 30 45C28.6193 45 27.5 43.8807 27.5 42.5C27.5 41.1193 28.6193 40 30 40C31.3807 40 32.5 41.1193 32.5 42.5Z" fill="#50B498"/>
<path d="M32.5 32.5C32.5 33.8807 31.3807 35 30 35C28.6193 35 27.5 33.8807 27.5 32.5C27.5 31.1193 28.6193 30 30 30C31.3807 30 32.5 31.1193 32.5 32.5Z" fill="#50B498"/>
<path d="M20 42.5C20 43.8807 18.8807 45 17.5 45C16.1193 45 15 43.8807 15 42.5C15 41.1193 16.1193 40 17.5 40C18.8807 40 20 41.1193 20 42.5Z" fill="#50B498"/>
<path d="M20 32.5C20 33.8807 18.8807 35 17.5 35C16.1193 35 15 33.8807 15 32.5C15 31.1193 16.1193 30 17.5 30C18.8807 30 20 31.1193 20 32.5Z" fill="#50B498"/>
</svg>
