<svg width="16" height="16" viewBox="0 0 16 16" fill="none" xmlns="http://www.w3.org/2000/svg">
<path opacity="0.5" d="M2.18327 10.1972C1.61665 9.46108 1.33334 9.09301 1.33334 8.00008C1.33334 6.90715 1.61665 6.5391 2.18327 5.80297C3.31465 4.33312 5.21208 2.66675 8.00001 2.66675C10.7879 2.66675 12.6853 4.33312 13.8167 5.80297C14.3833 6.5391 14.6667 6.90715 14.6667 8.00008C14.6667 9.09301 14.3833 9.46108 13.8167 10.1972C12.6853 11.667 10.7879 13.3334 8.00001 13.3334C5.21208 13.3334 3.31465 11.667 2.18327 10.1972Z" stroke="black" stroke-width="2"/>
<path d="M10 8C10 9.1046 9.1046 10 8 10C6.8954 10 6 9.1046 6 8C6 6.8954 6.8954 6 8 6C9.1046 6 10 6.8954 10 8Z" stroke="black" stroke-width="2"/>
</svg>
