<svg width="24" height="25" viewBox="0 0 24 25" fill="none" xmlns="http://www.w3.org/2000/svg">
<path d="M19.76 10.9442L19.67 10.5942H12.23V13.7542H16.68C16.4317 14.7185 15.8672 15.5716 15.0767 16.1771C14.2863 16.7826 13.3156 17.1055 12.32 17.0942C11.0208 17.0835 9.77253 16.5877 8.81998 15.7042C8.35173 15.2427 7.97911 14.6933 7.72343 14.0876C7.46776 13.4819 7.33406 12.8317 7.32999 12.1742C7.3451 10.8537 7.86791 9.58964 8.78999 8.64422C9.72909 7.75458 10.9764 7.26352 12.27 7.27422C13.3779 7.28275 14.4446 7.69521 15.27 8.43422L17.47 6.17422C16.02 4.88058 14.1432 4.1683 12.2 4.17422C11.131 4.16787 10.0713 4.37213 9.08126 4.77535C8.09124 5.17856 7.19033 5.77283 6.42999 6.52422C4.98368 8.0265 4.16826 10.026 4.15151 12.1113C4.13477 14.1966 4.91799 16.2089 6.33999 17.7342C7.12783 18.5191 8.06421 19.1392 9.0944 19.5581C10.1246 19.9771 11.2279 20.1865 12.34 20.1742C13.3484 20.1817 14.3479 19.9844 15.2779 19.5942C16.2078 19.204 17.0488 18.6291 17.75 17.9042C19.1259 16.3913 19.8702 14.4089 19.83 12.3642C19.8408 11.8898 19.8174 11.4153 19.76 10.9442Z" fill="white"/>
</svg>
