<svg width="18" height="13" viewBox="0 0 18 13" fill="none" xmlns="http://www.w3.org/2000/svg">
<path fill-rule="evenodd" clip-rule="evenodd" d="M16.9222 3.81289C12.3712 -0.546681 5.36772 -0.546681 0.816689 3.81289C0.735477 3.89145 0.688628 4.00111 0.686995 4.11647C0.685362 4.23183 0.729087 4.34289 0.808039 4.42389L1.68357 5.32389C1.84183 5.48826 2.09677 5.49268 2.26021 5.33389C6.0064 1.77626 11.7412 1.77626 15.4874 5.33389C15.6508 5.49268 15.9057 5.48826 16.064 5.32389L16.9395 4.42389C17.0174 4.34168 17.0596 4.22992 17.0563 4.11455C17.0531 3.99918 17.0046 3.8902 16.9222 3.81289ZM8.8695 9.05688C8.20869 9.05688 7.61294 9.47108 7.36006 10.1063C7.10718 10.7416 7.24696 11.4728 7.71422 11.959C8.18149 12.4452 8.88422 12.5906 9.49474 12.3275C10.1053 12.0644 10.5033 11.4445 10.5033 10.7569C10.5033 9.818 9.77183 9.05688 8.8695 9.05688ZM3.68755 6.83289C6.65147 4.12211 11.0887 4.12211 14.0527 6.83289C14.1367 6.91042 14.186 7.02081 14.1887 7.13763C14.1914 7.25445 14.1474 7.36719 14.0671 7.44889L13.1867 8.34889C13.0325 8.50735 12.7873 8.51647 12.6226 8.36989C10.4643 6.44126 7.27594 6.44126 5.11762 8.36989C4.95289 8.51647 4.70771 8.50735 4.55347 8.34889L3.67314 7.44889C3.59284 7.36719 3.54879 7.25445 3.55152 7.13763C3.55425 7.02081 3.60353 6.91042 3.68755 6.83289Z" fill="black"/>
</svg>
