<svg width="23" height="12" viewBox="0 0 23 12" fill="none" xmlns="http://www.w3.org/2000/svg">
<path fill-rule="evenodd" clip-rule="evenodd" d="M19.3938 0.542969H2.18786C1.29721 0.542969 0.575195 1.29423 0.575195 2.22097V10.053C0.575195 10.498 0.745101 10.9248 1.04754 11.2395C1.34997 11.5542 1.76016 11.731 2.18786 11.731H19.391C20.2816 11.731 21.0036 10.9797 21.0036 10.053V9.49297H21.2727C21.718 9.49297 22.0791 9.11734 22.0791 8.65397V3.61997C22.0791 3.39745 21.9941 3.18405 21.8429 3.02671C21.6917 2.86936 21.4866 2.78097 21.2727 2.78097H21.0036V2.22097C21.0036 1.29541 20.2834 0.544624 19.3938 0.542969ZM18.8565 2.78101V5.01901H19.9319V7.25701H18.8565V9.49301H2.72594V2.78101H18.8565ZM3.80151 3.90002H14.5549V8.37602H3.80151V3.90002Z" fill="white"/>
</svg>
