<svg width="28" height="28" viewBox="0 0 28 28" fill="none" xmlns="http://www.w3.org/2000/svg">
<path d="M23.6104 14.9013L13.0351 4.44666L13.038 4.44969C11.8459 3.25715 10.2764 2.65762 8.71375 2.65869C7.1511 2.65767 5.58141 3.25715 4.38932 4.44973C3.19646 5.64223 2.59734 7.21147 2.59815 8.77425C2.59734 10.3371 3.19646 11.9066 4.38936 13.0989L14.9643 23.5532L14.9615 23.5502C16.1539 24.7427 17.7231 25.3418 19.2857 25.3412C20.8486 25.3418 22.4178 24.7427 23.6101 23.5505C24.803 22.3576 25.4021 20.7877 25.4015 19.2252C25.4021 17.6627 24.8032 16.0935 23.6104 14.9013ZM6.14352 10.535C5.13051 9.52217 5.13051 7.85263 6.1563 6.82702C6.65294 6.3302 7.31348 6.05687 8.01633 6.05687L6.14352 10.535ZM22.5801 22.5204C21.6686 23.4312 20.4806 23.884 19.2857 23.8843C18.0909 23.884 16.9028 23.4312 15.9911 22.5201L15.9888 22.5178L15.9884 22.5171L11.1157 17.7C11.13 17.6062 11.1516 17.4961 11.1827 17.3739C11.2955 16.9225 11.5225 16.3147 11.865 15.6717C12.3781 14.7057 13.1513 13.6582 14.1732 12.8507C15.1903 12.0483 16.4381 11.4747 17.9848 11.3879L22.5783 15.9288L22.5805 15.9305C23.4913 16.8423 23.944 18.0302 23.945 19.2251C23.944 20.4201 23.4916 21.6083 22.5801 22.5204Z" fill="#9C9C9C"/>
</svg>
