<svg width="29" height="28" viewBox="0 0 29 28" fill="none" xmlns="http://www.w3.org/2000/svg">
<path d="M24.1104 14.9013L13.5351 4.44666L13.538 4.44969C12.346 3.25715 10.7764 2.65762 9.21378 2.65869C7.65113 2.65767 6.08144 3.25715 4.88935 4.44973C3.69649 5.64223 3.09737 7.21147 3.09818 8.77425C3.09737 10.3371 3.69649 11.9066 4.88939 13.0989L15.4644 23.5532L15.4615 23.5502C16.6539 24.7427 18.2231 25.3418 19.7858 25.3412C21.3486 25.3418 22.9178 24.7427 24.1102 23.5505C25.3031 22.3576 25.9022 20.7877 25.9015 19.2252C25.9022 17.6627 25.3032 16.0935 24.1104 14.9013ZM6.64355 10.535C5.63054 9.52217 5.63054 7.85263 6.65633 6.82702C7.15297 6.3302 7.81351 6.05687 8.51636 6.05687L6.64355 10.535ZM23.0801 22.5204C22.1686 23.4312 20.9806 23.884 19.7857 23.8843C18.591 23.884 17.4028 23.4312 16.4911 22.5201L16.4888 22.5178L16.4885 22.5171L11.6157 17.7C11.63 17.6062 11.6516 17.4961 11.6827 17.3739C11.7955 16.9225 12.0225 16.3147 12.365 15.6717C12.8782 14.7057 13.6513 13.6582 14.6732 12.8507C15.6904 12.0483 16.9382 11.4747 18.4848 11.3879L23.0783 15.9288L23.0805 15.9305C23.9913 16.8423 24.444 18.0302 24.445 19.2251C24.444 20.4201 23.9916 21.6083 23.0801 22.5204Z" fill="#50B498"/>
</svg>
