<svg width="184" height="184" viewBox="0 0 184 184" fill="none" xmlns="http://www.w3.org/2000/svg">
<path fill-rule="evenodd" clip-rule="evenodd" d="M176.333 30.6665C176.333 17.964 166.036 7.6665 153.333 7.6665H30.6665C17.964 7.6665 7.6665 17.964 7.6665 30.6665V153.333C7.6665 166.036 17.964 176.333 30.6665 176.333H153.333C166.036 176.333 176.333 166.036 176.333 153.333V30.6665ZM161 30.6665C161 26.4324 157.567 22.9998 153.333 22.9998H30.6665C26.4324 22.9998 22.9998 26.4324 22.9998 30.6665V153.333C22.9998 157.567 26.4324 161 30.6665 161H153.333C157.567 161 161 157.567 161 153.333V30.6665Z" fill="#0F0F0F"/>
<path d="M36.8508 134.329L69.9359 73.6727C72.8417 68.3454 80.4914 68.3454 83.397 73.6727L107.69 118.209L116.01 103.649C118.953 98.4983 126.379 98.4983 129.323 103.649L146.779 134.197C149.699 139.307 146.008 145.667 140.122 145.667H43.5813C37.7618 145.667 34.0641 139.438 36.8508 134.329Z" fill="#0F0F0F"/>
<path d="M138 61.3333C138 69.8017 131.135 76.6667 122.667 76.6667C114.198 76.6667 107.333 69.8017 107.333 61.3333C107.333 52.865 114.198 46 122.667 46C131.135 46 138 52.865 138 61.3333Z" fill="#0F0F0F"/>
</svg>
