<svg width="32" height="32" viewBox="0 0 32 32" fill="none" xmlns="http://www.w3.org/2000/svg">
<path d="M15.0255 5.88149C15.3341 5.18899 15.4885 4.84273 15.7035 4.73611C15.8901 4.64347 16.1093 4.64347 16.296 4.73611C16.5109 4.84273 16.6653 5.18899 16.974 5.88149L19.4327 11.3974C19.524 11.6021 19.5696 11.7045 19.6403 11.7829C19.7027 11.8522 19.7791 11.9077 19.8643 11.9457C19.9607 11.9886 20.0721 12.0004 20.2951 12.0239L26.3008 12.6578C27.0548 12.7373 27.4317 12.7771 27.5996 12.9486C27.7453 13.0975 27.8131 13.306 27.7827 13.5122C27.7477 13.7496 27.4661 14.0033 26.9029 14.5109L22.4167 18.5538C22.2503 18.7038 22.1669 18.7789 22.1143 18.8702C22.0676 18.9512 22.0384 19.0409 22.0287 19.1337C22.0176 19.2386 22.0408 19.3482 22.0873 19.5676L23.3404 25.4752C23.4977 26.2169 23.5764 26.5877 23.4652 26.8002C23.3685 26.985 23.1912 27.1138 22.9857 27.1486C22.7492 27.1886 22.4208 26.9993 21.764 26.6205L16.5327 23.6032C16.3385 23.4912 16.2415 23.4353 16.1383 23.4133C16.0469 23.394 15.9525 23.394 15.8612 23.4133C15.758 23.4353 15.6609 23.4912 15.4668 23.6032L10.2355 26.6205C9.57872 26.9993 9.25033 27.1886 9.01378 27.1486C8.8083 27.1138 8.63092 26.985 8.53433 26.8002C8.42314 26.5877 8.5018 26.2169 8.65912 25.4752L9.91213 19.5676C9.95864 19.3482 9.98189 19.2386 9.97085 19.1337C9.96108 19.0409 9.93192 18.9512 9.88525 18.8702C9.83252 18.7789 9.74926 18.7038 9.58277 18.5538L5.09661 14.5109C4.5334 14.0033 4.25178 13.7496 4.21677 13.5122C4.18637 13.306 4.25412 13.0975 4.3999 12.9486C4.56774 12.7771 4.94474 12.7373 5.69874 12.6578L11.7045 12.0239C11.9274 12.0004 12.0388 11.9886 12.1352 11.9457C12.2205 11.9077 12.2968 11.8522 12.3593 11.7829C12.4299 11.7045 12.4755 11.6021 12.5668 11.3974L15.0255 5.88149Z" fill="#FDCA28" stroke="#FDCA28" stroke-width="2" stroke-linecap="round" stroke-linejoin="round"/>
</svg>
