<svg width="26" height="26" viewBox="0 0 26 26" fill="none" xmlns="http://www.w3.org/2000/svg">
<path d="M12.0255 2.88149C12.3341 2.18899 12.4885 1.84273 12.7035 1.73611C12.8901 1.64347 13.1093 1.64347 13.296 1.73611C13.5109 1.84273 13.6653 2.18899 13.974 2.88149L16.4327 8.3974C16.524 8.60212 16.5696 8.70448 16.6403 8.78287C16.7027 8.85223 16.7791 8.90771 16.8643 8.94568C16.9607 8.98861 17.0721 9.00037 17.2951 9.02389L23.3008 9.65777C24.0548 9.73735 24.4317 9.77713 24.5996 9.94859C24.7453 10.0975 24.8131 10.306 24.7827 10.5122C24.7477 10.7496 24.4661 11.0033 23.9029 11.5109L19.4167 15.5538C19.2503 15.7038 19.1669 15.7789 19.1143 15.8702C19.0676 15.9512 19.0384 16.0409 19.0287 16.1337C19.0176 16.2386 19.0408 16.3482 19.0873 16.5676L20.3404 22.4752C20.4977 23.2169 20.5764 23.5877 20.4652 23.8002C20.3685 23.985 20.1912 24.1138 19.9857 24.1486C19.7492 24.1886 19.4208 23.9993 18.764 23.6205L13.5327 20.6032C13.3385 20.4912 13.2415 20.4353 13.1383 20.4133C13.0469 20.394 12.9525 20.394 12.8612 20.4133C12.758 20.4353 12.6609 20.4912 12.4668 20.6032L7.2355 23.6205C6.57873 23.9993 6.25034 24.1886 6.01379 24.1486C5.80831 24.1138 5.63093 23.985 5.53434 23.8002C5.42315 23.5877 5.50181 23.2169 5.65913 22.4752L6.91214 16.5676C6.95865 16.3482 6.9819 16.2386 6.97086 16.1337C6.96109 16.0409 6.93193 15.9512 6.88526 15.8702C6.83253 15.7789 6.74927 15.7038 6.58278 15.5538L2.09662 11.5109C1.53341 11.0033 1.25179 10.7496 1.21678 10.5122C1.18638 10.306 1.25413 10.0975 1.39991 9.94859C1.56775 9.77713 1.94475 9.73735 2.69875 9.65777L8.70447 9.02389C8.92738 9.00037 9.03882 8.98861 9.13519 8.94568C9.22046 8.90771 9.2968 8.85223 9.35928 8.78287C9.42988 8.70448 9.47551 8.60212 9.56678 8.3974L12.0255 2.88149Z" fill="#FDCA28" stroke="#FDCA28" stroke-width="2" stroke-linecap="round" stroke-linejoin="round"/>
</svg>
