<svg width="28" height="28" viewBox="0 0 28 28" fill="none" xmlns="http://www.w3.org/2000/svg">
<path d="M14 7L12.8406 10.5L14 7ZM19.2498 7C20.8806 7 21.696 7 22.3393 7.26642C23.1968 7.62165 23.8782 8.30302 24.2333 9.16061C24.4998 9.8038 24.4998 10.6192 24.4998 12.25V18.9C24.4998 20.8602 24.4998 21.8402 24.1183 22.589C23.7828 23.2476 23.2474 23.783 22.5888 24.1185C21.84 24.5 20.86 24.5 18.8998 24.5H9.0998C7.13962 24.5 6.15952 24.5 5.41084 24.1185C4.75226 23.783 4.21684 23.2476 3.88128 22.589C3.4998 21.8402 3.4998 20.8602 3.4998 18.9V12.25C3.4998 10.6192 3.4998 9.8038 3.76622 9.16061C4.12145 8.30302 4.80282 7.62165 5.66041 7.26642C6.30361 7 7.11901 7 8.7498 7M11.6665 19.8333H16.3331H11.6665ZM12.2982 3.5H15.7017C16.9628 3.5 17.5934 3.5 18.06 3.71631C18.6823 4.00472 19.1462 4.55232 19.3284 5.21358C19.4651 5.70951 19.3615 6.33148 19.1541 7.5754C19.0004 8.49772 18.9235 8.95888 18.7189 9.31908C18.4461 9.79935 18.0117 10.1673 17.4932 10.3574C17.1043 10.5 16.6367 10.5 15.7017 10.5H12.2982C11.3632 10.5 10.8957 10.5 10.5068 10.3574C9.98817 10.1673 9.55384 9.79935 9.28105 9.31908C9.07646 8.95888 8.9996 8.49772 8.84588 7.5754C8.63856 6.33148 8.5349 5.70951 8.67153 5.21358C8.8537 4.55232 9.31761 4.00472 9.93991 3.71631C10.4066 3.5 11.0372 3.5 12.2982 3.5Z" fill="#EAFFD6"/>
<path d="M14 7L12.8406 10.5M19.2498 7C20.8806 7 21.696 7 22.3393 7.26642C23.1968 7.62165 23.8782 8.30302 24.2333 9.16061C24.4998 9.8038 24.4998 10.6192 24.4998 12.25V18.9C24.4998 20.8602 24.4998 21.8402 24.1183 22.589C23.7828 23.2476 23.2474 23.783 22.5888 24.1185C21.84 24.5 20.86 24.5 18.8998 24.5H9.0998C7.13962 24.5 6.15952 24.5 5.41084 24.1185C4.75226 23.783 4.21684 23.2476 3.88128 22.589C3.4998 21.8402 3.4998 20.8602 3.4998 18.9V12.25C3.4998 10.6192 3.4998 9.8038 3.76622 9.16061C4.12145 8.30302 4.80282 7.62165 5.66041 7.26642C6.30361 7 7.11901 7 8.7498 7M11.6665 19.8333H16.3331M12.2982 3.5H15.7017C16.9628 3.5 17.5934 3.5 18.06 3.71631C18.6823 4.00472 19.1462 4.55232 19.3284 5.21358C19.4651 5.70951 19.3615 6.33148 19.1541 7.5754C19.0004 8.49772 18.9235 8.95888 18.7189 9.31908C18.4461 9.79935 18.0117 10.1673 17.4932 10.3574C17.1043 10.5 16.6367 10.5 15.7017 10.5H12.2982C11.3632 10.5 10.8957 10.5 10.5068 10.3574C9.98817 10.1673 9.55384 9.79935 9.28105 9.31908C9.07646 8.95888 8.9996 8.49772 8.84588 7.5754C8.63856 6.33148 8.5349 5.70951 8.67153 5.21358C8.8537 4.55232 9.31761 4.00472 9.93991 3.71631C10.4066 3.5 11.0372 3.5 12.2982 3.5Z" stroke="#50B498" stroke-width="2" stroke-linecap="round" stroke-linejoin="round"/>
</svg>
