<svg width="28" height="28" viewBox="0 0 28 28" fill="none" xmlns="http://www.w3.org/2000/svg">
<path d="M14 7L12.8406 10.5M19.2498 7C20.8805 7 21.6959 7 22.3392 7.26642C23.1967 7.62165 23.8782 8.30302 24.2333 9.16061C24.4998 9.8038 24.4998 10.6192 24.4998 12.25V18.9C24.4998 20.8602 24.4998 21.8402 24.1183 22.589C23.7827 23.2476 23.2473 23.783 22.5888 24.1185C21.84 24.5 20.86 24.5 18.8998 24.5H9.09976C7.13957 24.5 6.15948 24.5 5.41079 24.1185C4.75222 23.783 4.21679 23.2476 3.88123 22.589C3.49976 21.8402 3.49976 20.8602 3.49976 18.9V12.25C3.49976 10.6192 3.49976 9.8038 3.76618 9.16061C4.1214 8.30302 4.80277 7.62165 5.66036 7.26642C6.30356 7 7.11897 7 8.74976 7M11.6664 19.8333H16.3331M12.2982 3.5H15.7017C16.9627 3.5 17.5933 3.5 18.06 3.71631C18.6823 4.00472 19.1462 4.55232 19.3284 5.21358C19.465 5.70951 19.3614 6.33148 19.1541 7.5754C19.0003 8.49772 18.9234 8.95888 18.7188 9.31908C18.446 9.79935 18.0117 10.1673 17.4931 10.3574C17.1043 10.5 16.6367 10.5 15.7017 10.5H12.2982C11.3632 10.5 10.8956 10.5 10.5067 10.3574C9.98813 10.1673 9.5538 9.79935 9.28101 9.31908C9.07641 8.95888 8.99955 8.49772 8.84583 7.5754C8.63851 6.33148 8.53486 5.70951 8.67148 5.21358C8.85366 4.55232 9.31756 4.00472 9.93986 3.71631C10.4066 3.5 11.0371 3.5 12.2982 3.5Z" stroke="#9C9C9C" stroke-width="2" stroke-linecap="round" stroke-linejoin="round"/>
</svg>
